<svg xmlns="http://www.w3.org/2000/svg" viewBox="0 0 800 560" width="800" height="560">
  <rect width="800" height="560" fill="#ffffff"/>
  <rect x="24" y="24" width="752" height="512" fill="none" stroke="#ef4444" stroke-width="2"/>

  <!-- Red Accent & Cybrary Header -->
  <g transform="translate(60, 55)">
    <rect x="0" y="0" width="24" height="24" rx="4" fill="#dc2626"/>
    <text x="32" y="19" fill="#111827" font-family="'Inter', sans-serif" font-weight="900" font-size="22">CYBRARY</text>
    <text x="145" y="19" fill="#dc2626" font-family="'Inter', sans-serif" font-weight="700" font-size="14">ACADEMY</text>
  </g>

  <!-- Security Shield Badge -->
  <g transform="translate(640, 180)">
    <path d="M 0,-40 Q 35,-35 45,-20 Q 45,30 0,55 Q -45,30 -45,-20 Q -35,-35 0,-40 Z" fill="#fee2e2" stroke="#dc2626" stroke-width="2"/>
    <text x="0" y="0" text-anchor="middle" fill="#dc2626" font-family="'Inter', sans-serif" font-size="14" font-weight="bold">SEC+</text>
    <text x="0" y="18" text-anchor="middle" fill="#991b1b" font-family="'Inter', sans-serif" font-size="7" font-weight="bold">PREPARATION</text>
  </g>

  <g transform="translate(60, 150)">
    <text x="0" y="0" fill="#991b1b" font-family="'Inter', sans-serif" font-size="12" font-weight="bold" letter-spacing="1">CERTIFICATE OF COURSE COMPLETION</text>
    <text x="0" y="44" fill="#0f172a" font-family="'Georgia', serif" font-weight="bold" font-size="32">Darren Raisya Iqbal</text>
    <line x1="0" y1="56" x2="420" y2="56" stroke="#fecaca" stroke-width="1.5"/>

    <text x="0" y="92" fill="#475569" font-family="'Inter', sans-serif" font-size="13">has successfully passed the comprehensive curriculum for</text>
    <text x="0" y="125" fill="#b91c1c" font-family="'Inter', sans-serif" font-weight="700" font-size="20">CompTIA Security+ Certification Preparation</text>
    <text x="0" y="152" fill="#64748b" font-family="'Inter', sans-serif" font-size="12">Mastery of enterprise security posture, risk management, and cryptographic implementations.</text>

    <!-- Signatures -->
    <g transform="translate(0, 220)">
      <path d="M 0,12 Q 30,-2 60,18 T 120,8" stroke="#0f172a" stroke-width="1.8" fill="none"/>
      <line x1="0" y1="20" x2="140" y2="20" stroke="#cbd5e1" stroke-width="1"/>
      <text x="0" y="34" fill="#0f172a" font-family="'Inter', sans-serif" font-size="11" font-weight="600">Marcus Carey</text>
      <text x="0" y="46" fill="#64748b" font-family="'Inter', sans-serif" font-size="9">Lead Instructor, Cybrary</text>
    </g>
  </g>

  <text x="60" y="500" fill="#94a3b8" font-family="'Courier New', monospace" font-size="10">Credential ID: CYB-SEC-77319 • March 2024</text>
</svg>
